<svg width="63" height="55" xmlns="http://www.w3.org/2000/svg">
 <!-- Created with Method Draw - http://github.com/duopixel/Method-Draw/ -->

 <g>
  <title>background</title>
  <rect fill="none" id="canvas_background" height="57" width="65" y="-1" x="-1"/>
  <g display="none" overflow="visible" y="0" x="0" height="100%" width="100%" id="canvasGrid">
   <rect fill="url(#gridpattern)" stroke-width="0" y="0" x="0" height="100%" width="100%"/>
  </g>
 </g>
 <g>
  <title>Layer 1</title>
  <g stroke="null" id="svg_5">
   <path stroke="null" id="svg_4" d="m1.647944,-0.625c-1.385284,0 -2.515132,1.129847 -2.515132,2.515132c0,1.385284 1.129847,2.515132 2.515132,2.515132l5.580448,0l6.60222,26.408881c0.560019,2.240052 2.564252,3.772697 4.873067,3.772697l28.845414,0c2.269504,0 4.195164,-1.503193 4.794469,-3.694099l6.523622,-23.972347l-42.128453,0l1.257566,5.030263l34.347265,0l-4.794469,17.605921l-28.845414,0l-6.60222,-26.408881c-0.560019,-2.240026 -2.564252,-3.772697 -4.873067,-3.772697l-5.580448,0zm42.757236,35.211841c-4.136209,0 -7.545395,3.409185 -7.545395,7.545395c0,4.136209 3.409185,7.545395 7.545395,7.545395c4.136209,0 7.545395,-3.409185 7.545395,-7.545395c0,-4.136209 -3.409185,-7.545395 -7.545395,-7.545395zm-22.636184,0c-4.136209,0 -7.545395,3.409185 -7.545395,7.545395c0,4.136209 3.409185,7.545395 7.545395,7.545395c4.136209,0 7.545395,-3.409185 7.545395,-7.545395c0,-4.136209 -3.409185,-7.545395 -7.545395,-7.545395zm0,5.030263c1.414761,0 2.515132,1.10037 2.515132,2.515132c0,1.414761 -1.10037,2.515132 -2.515132,2.515132c-1.414761,0 -2.515132,-1.10037 -2.515132,-2.515132c0,-1.414761 1.10037,-2.515132 2.515132,-2.515132zm22.636184,0c1.414761,0 2.515132,1.10037 2.515132,2.515132c0,1.414761 -1.10037,2.515132 -2.515132,2.515132c-1.414761,0 -2.515132,-1.10037 -2.515132,-2.515132c0,-1.414761 1.10037,-2.515132 2.515132,-2.515132z"/>
  </g>
 </g>
</svg>