<svg width="63" height="55" xmlns="http://www.w3.org/2000/svg">
 <!-- Created with Method Draw - http://github.com/duopixel/Method-Draw/ -->

 <g>
  <title>background</title>
  <rect fill="none" id="canvas_background" height="57" width="65" y="-1" x="-1"/>
  <g display="none" overflow="visible" y="0" x="0" height="100%" width="100%" id="canvasGrid">
   <rect fill="url(#gridpattern)" stroke-width="0" y="0" x="0" height="100%" width="100%"/>
  </g>
 </g>
 <g>
  <title>Layer 1</title>
  <g stroke="null" id="svg_15">
   <path stroke="null" id="svg_14" d="m31.000001,8.874139c-16.589746,0 -29.354678,18.015927 -29.354678,18.015927l-1.18165,1.609934l1.18165,1.609934c0,0 11.637699,16.358079 27.115762,17.8626c0.738532,0.114995 1.477064,0.153327 2.238916,0.153327c0.761854,0 1.500384,-0.038332 2.238916,-0.153327c15.478063,-1.504521 27.115762,-17.8626 27.115762,-17.8626l1.18165,-1.609934l-1.18165,-1.609934c0,0 -12.764931,-18.015927 -29.354678,-18.015927zm0,4.906465c4.384544,0 8.427032,1.475774 11.940886,3.449858c1.267165,2.587395 1.990148,5.567687 1.990148,8.816305c0,8.864219 -5.395165,16.147253 -12.376231,17.095965c-0.03887,0.009582 -0.085515,-0.009582 -0.124384,0c-0.474214,0.028749 -0.948429,0.076664 -1.430419,0.076664c-0.528633,0 -1.041717,-0.038332 -1.554803,-0.076664c-6.981064,-0.948712 -12.376231,-8.231746 -12.376231,-17.095965c0,-3.200701 0.699662,-6.180996 1.927956,-8.739641l-0.062192,0c3.544951,-2.012416 7.634083,-3.526522 12.06527,-3.526522zm0,4.906465c-3.296182,0 -5.970443,3.296531 -5.970443,7.359698c0,4.063167 2.674261,7.359698 5.970443,7.359698c3.296182,0 5.970443,-3.296531 5.970443,-7.359698c0,-4.063167 -2.674261,-7.359698 -5.970443,-7.359698zm-17.413792,2.299906c-0.310961,1.648266 -0.497537,3.306114 -0.497537,5.059792c0,4.302739 0.995074,8.327574 2.736453,11.729518c-5.014239,-3.574436 -8.496997,-7.838844 -9.639778,-9.276286c0.956204,-1.207449 3.622692,-4.408152 7.400862,-7.513025zm34.827585,0c3.778172,3.104873 6.444657,6.305576 7.400862,7.513025c-1.142781,1.437442 -4.625539,5.70185 -9.639778,9.276286c1.741379,-3.401944 2.736453,-7.426779 2.736453,-11.729518c0,-1.753679 -0.186576,-3.430691 -0.497537,-5.059792z"/>
  </g>
 </g>
</svg>